<svg id="visual" viewBox="0 0 1440 1024" width="1440" height="1024" xmlns="http://www.w3.org/2000/svg" xmlns:xlink="http://www.w3.org/1999/xlink" version="1.1"><path d="M0 267L40 275.5C80 284 160 301 240 331.8C320 362.7 400 407.3 480 434.7C560 462 640 472 720 477C800 482 880 482 960 439.3C1040 396.7 1120 311.3 1200 258.5C1280 205.7 1360 185.3 1400 175.2L1440 165L1440 0L1400 0C1360 0 1280 0 1200 0C1120 0 1040 0 960 0C880 0 800 0 720 0C640 0 560 0 480 0C400 0 320 0 240 0C160 0 80 0 40 0L0 0Z" fill="#b7bea4"></path><path d="M0 431L40 439.5C80 448 160 465 240 480.3C320 495.7 400 509.3 480 531.5C560 553.7 640 584.3 720 596.3C800 608.3 880 601.7 960 562.5C1040 523.3 1120 451.7 1200 412.3C1280 373 1360 366 1400 362.5L1440 359L1440 163L1400 173.2C1360 183.3 1280 203.7 1200 256.5C1120 309.3 1040 394.7 960 437.3C880 480 800 480 720 475C640 470 560 460 480 432.7C400 405.3 320 360.7 240 329.8C160 299 80 282 40 273.5L0 265Z" fill="#a7b090"></path><path d="M0 646L40 634C80 622 160 598 240 608.3C320 618.7 400 663.3 480 692.5C560 721.7 640 735.3 720 733.5C800 731.7 880 714.3 960 669.8C1040 625.3 1120 553.7 1200 523C1280 492.3 1360 502.7 1400 507.8L1440 513L1440 357L1400 360.5C1360 364 1280 371 1200 410.3C1120 449.7 1040 521.3 960 560.5C880 599.7 800 606.3 720 594.3C640 582.3 560 551.7 480 529.5C400 507.3 320 493.7 240 478.3C160 463 80 446 40 437.5L0 429Z" fill="#98a27d"></path><path d="M0 943L40 927.7C80 912.3 160 881.7 240 869.7C320 857.7 400 864.3 480 879.7C560 895 640 919 720 915.7C800 912.3 880 881.7 960 874.8C1040 868 1120 885 1200 897C1280 909 1360 916 1400 919.5L1440 923L1440 511L1400 505.8C1360 500.7 1280 490.3 1200 521C1120 551.7 1040 623.3 960 667.8C880 712.3 800 729.7 720 731.5C640 733.3 560 719.7 480 690.5C400 661.3 320 616.7 240 606.3C160 596 80 620 40 632L0 644Z" fill="#848c6c"></path><path d="M0 1025L40 1025C80 1025 160 1025 240 1025C320 1025 400 1025 480 1025C560 1025 640 1025 720 1025C800 1025 880 1025 960 1025C1040 1025 1120 1025 1200 1025C1280 1025 1360 1025 1400 1025L1440 1025L1440 921L1400 917.5C1360 914 1280 907 1200 895C1120 883 1040 866 960 872.8C880 879.7 800 910.3 720 913.7C640 917 560 893 480 877.7C400 862.3 320 855.7 240 867.7C160 879.7 80 910.3 40 925.7L0 941Z" fill="#70775b"></path></svg>